<svg id="Layer_5" data-name="Layer 5" xmlns="http://www.w3.org/2000/svg" viewBox="0 0 600 600">
  <defs>
    <style>
      .cls-1, .cls-2, .cls-3 {
        fill: none;
      }

      .cls-1, .cls-3 {
        stroke: #011215;
        opacity: .08;
      }

      .cls-1 {
        stroke-miterlimit: 10;
        stroke-width: 4px;
      }

      .cls-3 {
        stroke-linecap: round;
        stroke-linejoin: round;
        stroke-width: 8px;
      }
    </style>
  </defs>
  <title>Logo-webstie12-01</title>
  <line class="cls-1" x1="297.62" y1="118.75" x2="363.93" y2="189.1"/>
  <line class="cls-1" x1="364.03" y1="156.46" x2="297.62" y2="226.66"/>
  <line class="cls-1" x1="364.03" y1="295.98" x2="297.62" y2="226.66"/>
  <line class="cls-1" x1="297.62" y1="258.28" x2="363.93" y2="191.56"/>
  <line class="cls-1" x1="364.03" y1="296.93" x2="297.62" y2="366.25"/>
  <line class="cls-1" x1="297.62" y1="258.28" x2="364" y2="329.02"/>
  <line class="cls-1" x1="386.93" y1="247.19" x2="364.03" y2="156.46"/>
  <line class="cls-1" x1="364.03" y1="234.03" x2="444.95" y2="203.73"/>
  <line class="cls-1" x1="364" y1="329.02" x2="391.34" y2="421.64"/>
  <line class="cls-1" x1="391.34" y1="344.53" x2="297.62" y2="366.25"/>
  <line class="cls-1" x1="391.34" y1="421.64" x2="419.8" y2="327.79"/>
  <line class="cls-1" x1="391.34" y1="344.53" x2="485.58" y2="366.15"/>
  <line class="cls-1" x1="419.68" y1="295.31" x2="485.58" y2="366.15"/>
  <line class="cls-1" x1="419.8" y1="327.79" x2="486.21" y2="256.1"/>
  <polygon class="cls-2" points="419.68 295.31 419.8 327.79 391.34 344.53 391.34 344.61 364 329.02 364.03 329 364.03 296.93 364.03 295.98 364.03 234.03 386.93 247.19 445.05 204 364.03 156.46 297.62 118.75 297.62 226.66 297.62 226.73 297.62 258.28 297.62 259.68 297.62 366.25 391.34 421.64 485.58 366.15 486.21 256.1 419.68 295.31"/>
  <g>
    <polygon class="cls-3" points="297.62 366.08 364.03 329.19 391.36 344.45 391.34 421.46 297.62 366.08"/>
    <polygon class="cls-3" points="297.62 226.56 363.94 189.1 364.15 156.35 297.62 118.58 297.62 226.56"/>
    <polygon class="cls-3" points="297.62 366.08 364.03 329.19 364.03 297.1 297.62 257.85 297.62 366.08"/>
    <polygon class="cls-3" points="364.03 297.1 297.62 257.85 297.62 226.56 363.94 189.1 364.03 297.1"/>
    <polygon class="cls-3" points="444.95 203.73 386.83 246.92 363.94 233.76 364.15 156.35 444.95 203.73"/>
    <polygon class="cls-3" points="485.58 365.97 419.8 327.62 419.68 295.14 486.21 255.93 485.58 365.97"/>
    <polygon class="cls-3" points="485.58 365.97 419.8 327.78 391.34 344.52 391.34 421.62 485.58 365.97"/>
  </g>
  <polygon class="cls-2" points="201.25 156.36 201.25 188.86 201.25 189.38 201.25 295.88 201.25 296.84 201.25 328.66 173.94 344.52 173.94 344.44 145.49 327.7 79.7 366.05 173.94 421.54 267.66 366.16 267.66 259.58 267.66 258.18 267.66 226.63 267.66 226.56 267.66 118.66 201.25 156.36"/>
  <g>
    <polygon class="cls-3" points="267.9 366.08 201.49 329.19 174.16 344.45 174.18 421.46 267.9 366.08"/>
    <polygon class="cls-3" points="267.9 226.56 201.59 189.1 201.38 156.35 267.9 118.58 267.9 226.56"/>
    <polygon class="cls-3" points="267.9 366.08 201.49 329.19 201.49 297.1 267.9 257.85 267.9 366.08"/>
    <polygon class="cls-3" points="201.49 297.1 267.9 257.85 267.9 226.56 201.59 189.1 201.49 297.1"/>
    <polygon class="cls-3" points="79.94 365.97 145.72 327.78 174.18 344.52 174.18 421.62 79.94 365.97"/>
  </g>
  <line class="cls-1" x1="201.25" y1="188.86" x2="267.9" y2="118.58"/>
  <line class="cls-1" x1="201.25" y1="156.36" x2="267.9" y2="226.56"/>
  <line class="cls-1" x1="201.25" y1="189.38" x2="267.9" y2="257.85"/>
  <line class="cls-1" x1="201.49" y1="297.1" x2="267.9" y2="226.56"/>
  <line class="cls-1" x1="267.66" y1="366.16" x2="201.49" y2="297.1"/>
  <line class="cls-1" x1="201.49" y1="329.18" x2="267.9" y2="261.83"/>
  <line class="cls-1" x1="173.94" y1="344.44" x2="79.94" y2="365.97"/>
  <line class="cls-1" x1="145.49" y1="327.7" x2="174.18" y2="421.62"/>
  <line class="cls-1" x1="201.25" y1="328.66" x2="173.94" y2="421.54"/>
  <line class="cls-1" x1="173.94" y1="344.44" x2="267.9" y2="366.08"/>
</svg>
